<svg id="visual" viewBox="0 0 900 600" width="900" height="600" xmlns="http://www.w3.org/2000/svg" xmlns:xlink="http://www.w3.org/1999/xlink" version="1.1"><rect x="0" y="0" width="900" height="600" fill="#1D1E28"></rect><path d="M0 527L21.5 532.2C43 537.3 86 547.7 128.8 547.2C171.7 546.7 214.3 535.3 257.2 530.2C300 525 343 526 385.8 533C428.7 540 471.3 553 514.2 558.2C557 563.3 600 560.7 642.8 552C685.7 543.3 728.3 528.7 771.2 522.2C814 515.7 857 517.3 878.5 518.2L900 519L900 601L878.5 601C857 601 814 601 771.2 601C728.3 601 685.7 601 642.8 601C600 601 557 601 514.2 601C471.3 601 428.7 601 385.8 601C343 601 300 601 257.2 601C214.3 601 171.7 601 128.8 601C86 601 43 601 21.5 601L0 601Z" fill="#32ff00" stroke-linecap="round" stroke-linejoin="miter"></path></svg>